# xmcd
#
# Track frame offsets:
#	150
#	12352
#	23035
#	37757
#	50822
#	63690
#	78652
#	91202
#	104315
#	116540
#	129455
#	142957
#	155730
#	169547
#	182660
#	195662
#	209677
#	219397
#
# Disc length: 3107 seconds
# Revision: 5
# Processed by: cddbd v1.5.2PL0 Copyright (c) Steve Scherf et al.
# Submitted via: dBpowerAMP V12.0
#
DISCID=fa0c2112
DTITLE=Various Artist - The Chess Box,CD1of2
DYEAR=1988
DGENRE=Blues
TTITLE0=Little Walter - My Babe
TTITLE1=The Big Three - Violent Love
TTITLE2=Eddie Boyd - Third Degree
TTITLE3=Willie Mabon - Seventh Son
TTITLE4=WillieDixon,AKAWilliamJamesDixon,Vicksburg,MS,thenChicago,IL - Crazy For My Baby
TTITLE5=WillieDixon,AKAWilliamJamesDixon,Vicksburg,MS,thenChicago,IL - Pain In My Heart
TTITLE6=Muddy Waters - Hoochie Coochie Man
TTITLE7=Howlin' Wolf - Evil
TTITLE8=Little Walter - Mellow Down Easy
TTITLE9=Jimmy Witherspoon - When The Lights Go Out
TTITLE10=Muddy Waters - Young Fashioned Ways
TTITLE11=Bo Diddley - Pretty Thing
TTITLE12=Muddy Waters - I'm Ready
TTITLE13=Lowell Fulson - Do Me Right
TTITLE14=Muddy Waters - I Just Want To Make Love To You
TTITLE15=Lowell Fulson - Tollin' Bells
TTITLE16=WillieDixon,AKAWilliamJamesDixon,Vicksburg,MS,thenChicago,IL - 29 Ways
TTITLE17=WillieDixon,AKAWilliamJamesDixon,Vicksburg,MS,thenChicago,IL - Walkin' The Blues
EXTD=
EXTT0=
EXTT1=
EXTT2=
EXTT3=
EXTT4=
EXTT5=
EXTT6=
EXTT7=
EXTT8=
EXTT9=
EXTT10=
EXTT11=
EXTT12=
EXTT13=
EXTT14=
EXTT15=
EXTT16=
EXTT17=
PLAYORDER=
